# xmcd
#
# Track frame offsets: 
#        150
#        21833
#        41470
#        60839
#        84963
#        108498
#        131837
#        155548
#        182197
#        200372
#
# Disc length: 2921 seconds
#
# Revision: 0
# Processed by: cddbd v1.5.2PL0 Copyright (c) Steve Scherf et al.
# Submitted via: ExactAudioCopy v1.0b3
#
DISCID=7b0b670a
DTITLE=Hong Truc - Nhung Bai Tinh Ca Mua Dong
DYEAR=2002
DGENRE=
TTITLE0=Noi buon dem dong
TTITLE1=Suong lanh chieu dong
TTITLE2=Mua dong binh si
TTITLE3=Cho nguoi tinh nho
TTITLE4=Bien tuyet
TTITLE5=Chung Tu Luu - Mua dong cua anh
TTITLE6=Mua dong xu Hue
TTITLE7=Chuyen tinh nguoi dan ao
TTITLE8=Chung Tu Luu - Chiec la mua dong
TTITLE9=Anh duong anh em duong em
EXTD=
EXTT0=
EXTT1=
EXTT2=
EXTT3=
EXTT4=
EXTT5=
EXTT6=
EXTT7=
EXTT8=
EXTT9=
PLAYORDER=
